<svg xmlns="http://www.w3.org/2000/svg" xmlns:xlink="http://www.w3.org/1999/xlink" width="500" zoomAndPan="magnify" viewBox="0 0 375 374.999991" height="500" preserveAspectRatio="xMidYMid meet" version="1.0"><defs><g/><clipPath id="d195945eba"><path d="M 187.5 0 C 83.945312 0 0 83.945312 0 187.5 C 0 291.054688 83.945312 375 187.5 375 C 291.054688 375 375 291.054688 375 187.5 C 375 83.945312 291.054688 0 187.5 0 Z M 187.5 0 " clip-rule="nonzero"/></clipPath></defs><g clip-path="url(#d195945eba)"><rect x="-37.5" width="450" fill="#000000" y="-37.499999" height="449.999989" fill-opacity="1"/></g><g fill="#ffffff" fill-opacity="1"><g transform="translate(19.058155, 282.198989)"><g><path d="M 129.140625 -70.765625 L 129.984375 -70.765625 L 129.984375 -197.359375 L 171.703125 -197.359375 L 171.703125 -24.25 C 171.703125 -15.789062 169.773438 -9.066406 165.921875 -4.078125 C 162.078125 0.898438 156.207031 3.390625 148.3125 3.390625 C 144.550781 3.390625 141.210938 2.914062 138.296875 1.96875 C 135.378906 1.03125 132.648438 -0.46875 130.109375 -2.53125 C 127.578125 -4.601562 125.085938 -7.425781 122.640625 -11 C 120.203125 -14.570312 117.664062 -19.082031 115.03125 -24.53125 L 58.359375 -141.546875 L 57.796875 -140.96875 L 57.796875 0 L 16.078125 0 L 16.078125 -172.84375 C 16.078125 -180.726562 18.566406 -187.347656 23.546875 -192.703125 C 28.523438 -198.066406 35.617188 -200.75 44.828125 -200.75 C 52.722656 -200.75 59.488281 -198.398438 65.125 -193.703125 C 70.769531 -189.003906 75.941406 -181.765625 80.640625 -171.984375 Z M 129.140625 -70.765625 "/></g></g></g><g fill="#ffffff" fill-opacity="1"><g transform="translate(207.120611, 282.198989)"><g><path d="M 150.84375 -133.359375 C 150.84375 -123.960938 149.195312 -115.175781 145.90625 -107 C 142.613281 -98.820312 137.960938 -91.675781 131.953125 -85.5625 C 125.941406 -79.457031 118.800781 -74.664062 110.53125 -71.1875 C 102.257812 -67.71875 93.046875 -65.984375 82.890625 -65.984375 L 67.109375 -65.984375 L 67.109375 -105.453125 C 68.609375 -105.453125 70.203125 -105.453125 71.890625 -105.453125 C 73.585938 -105.453125 75.1875 -105.546875 76.6875 -105.734375 C 88.71875 -106.484375 97.128906 -109.019531 101.921875 -113.34375 C 106.710938 -117.664062 109.109375 -124.242188 109.109375 -133.078125 C 109.109375 -142.097656 106.757812 -149.050781 102.0625 -153.9375 C 97.363281 -158.832031 90.785156 -161.28125 82.328125 -161.28125 C 73.867188 -161.28125 67.289062 -158.832031 62.59375 -153.9375 C 57.894531 -149.050781 55.546875 -142.378906 55.546875 -133.921875 L 55.546875 0 L 13.8125 0 L 13.8125 -133.921875 C 13.8125 -142.953125 15.410156 -151.503906 18.609375 -159.578125 C 21.804688 -167.660156 26.363281 -174.753906 32.28125 -180.859375 C 38.207031 -186.972656 45.398438 -191.816406 53.859375 -195.390625 C 62.316406 -198.960938 71.804688 -200.75 82.328125 -200.75 C 92.484375 -200.75 101.742188 -199.007812 110.109375 -195.53125 C 118.472656 -192.050781 125.707031 -187.253906 131.8125 -181.140625 C 137.914062 -175.035156 142.613281 -167.894531 145.90625 -159.71875 C 149.195312 -151.550781 150.84375 -142.765625 150.84375 -133.359375 Z M 150.84375 -133.359375 "/></g></g></g></svg>